<svg width="87" height="87" viewBox="0 0 87 87" fill="none" xmlns="http://www.w3.org/2000/svg">
<rect width="86.187" height="86.187" rx="16" fill="#EDF9FF"/>
<path d="M43 62.5C53.7696 62.5 62.5 53.7696 62.5 43C62.5 32.2304 53.7696 23.5 43 23.5C32.2304 23.5 23.5 32.2304 23.5 43C23.5 53.7696 32.2304 62.5 43 62.5Z" stroke="#47C6FD" stroke-width="4.33333" stroke-linecap="round" stroke-linejoin="round"/>
<path d="M41.4985 38.1012L49.5 36.5L47.8988 44.5015C47.7312 45.3402 47.3192 46.1105 46.7146 46.7154C46.1101 47.3203 45.34 47.7329 44.5015 47.901L36.5 49.5L38.1012 41.4985C38.2692 40.6602 38.6814 39.8904 39.2859 39.2859C39.8904 38.6814 40.6602 38.2692 41.4985 38.1012Z" stroke="#47C6FD" stroke-width="4.33333" stroke-linecap="round" stroke-linejoin="round"/>
</svg>
