<svg width="151" height="46" viewBox="0 0 151 46" fill="none" xmlns="http://www.w3.org/2000/svg">
<path fill-rule="evenodd" clip-rule="evenodd" d="M23.5014 0C36.4819 0 47.0027 10.1555 47.0027 22.6815C47.0027 35.2074 36.4819 45.3629 23.5014 45.3629C10.5208 45.3629 0 35.2074 0 22.6815C0 10.1555 10.5208 0 23.5014 0Z" fill="#139FDD"/>
<path fill-rule="evenodd" clip-rule="evenodd" d="M23.5021 5.93349C33.0893 5.93349 40.8582 13.4344 40.8582 22.6889C40.8582 31.9433 33.0893 39.4443 23.5021 39.4443C13.9148 39.4443 6.14595 31.9433 6.14595 22.6889C6.14595 13.4344 13.9148 5.93349 23.5021 5.93349ZM23.5021 5.36523C33.414 5.36523 41.4427 13.1178 41.4427 22.6808C41.4427 32.2437 33.4059 39.9963 23.5021 39.9963C13.5901 39.9963 5.56146 32.2437 5.56146 22.6808C5.56146 13.1178 13.5901 5.36523 23.5021 5.36523Z" fill="white"/>
<path fill-rule="evenodd" clip-rule="evenodd" d="M26.6906 25.6697C27.3156 25.483 27.9001 25.2638 28.4034 25.0365C27.8758 25.3206 27.2994 25.5723 26.6824 25.7915C26.6824 25.7509 26.6906 25.7103 26.6906 25.6697ZM13.2879 21.2373C10.1138 23.5915 13.6775 25.3287 15.9181 25.9782C18.3453 26.6763 21.1866 26.6925 23.7194 26.3191C23.7113 26.3922 23.7032 26.4652 23.6951 26.5464C20.9512 26.9929 17.9313 26.8955 15.4797 26.2055C13.0849 25.5236 9.50493 23.5509 13.2879 21.2373Z" fill="white"/>
<path fill-rule="evenodd" clip-rule="evenodd" d="M25.8805 30.3854C26.8466 30.1176 27.7801 29.7766 28.6812 29.3707C27.7964 29.8497 26.8384 30.2312 25.8399 30.5316L25.8805 30.3854ZM14.28 26.0586C12.5428 27.3493 12.7701 28.3803 13.7037 29.1678C15.0675 30.3124 17.1132 30.8482 19.0615 31.0268C20.3847 31.1485 21.7323 31.1161 23.0636 30.9456L23.0311 31.1404C21.1965 31.3921 19.3213 31.3758 17.6003 31.0998C16.0984 30.8644 14.6778 30.3773 13.59 29.5249C12.4454 28.6239 12.1044 27.3818 14.28 26.0586Z" fill="white"/>
<path fill-rule="evenodd" clip-rule="evenodd" d="M26.7731 21.6832C27.1871 21.5451 27.5687 21.399 27.9096 21.2448C27.5605 21.4396 27.179 21.6101 26.7731 21.7643V21.6832ZM15.1969 18.0544C12.5262 20.0352 15.5298 21.4964 17.405 22.0403C19.4183 22.6248 21.7806 22.6411 23.8912 22.3407C23.8912 22.4056 23.8912 22.4625 23.8912 22.5274C21.5939 22.8927 19.0854 22.8115 17.0316 22.2271C15.0265 21.6588 12.0066 19.9946 15.1969 18.0544Z" fill="white"/>
<path fill-rule="evenodd" clip-rule="evenodd" d="M24.9637 33.5593C24.9962 33.5512 25.0368 33.5431 25.0693 33.5431C25.0287 33.5512 24.9962 33.5593 24.9637 33.5593ZM20.0605 16.26C16.1639 17.429 13.347 20.7979 13.347 24.7676C13.347 29.5328 17.3978 33.4294 22.5121 33.7054L22.4797 33.8434C17.13 33.8191 12.795 29.7601 12.795 24.7676C12.795 21.6178 14.516 18.8415 17.1299 17.2179L17.268 17.153C18.169 16.739 19.1026 16.4386 20.0605 16.26Z" fill="white"/>
<path fill-rule="evenodd" clip-rule="evenodd" d="M25.1568 16.3749C26.959 22.1223 26.2203 28.1215 23.9797 34.421L22.7864 35.3546C24.8321 26.4248 25.0026 21.1644 23.6793 16.107C24.1745 16.1638 24.6697 16.2531 25.1568 16.3749ZM20.9923 8.63037C22.2993 10.2945 23.3303 11.975 24.1177 13.6716C23.7037 13.5985 23.2816 13.5417 22.8676 13.5092C22.3155 11.975 21.6417 10.4082 20.8381 8.71155L20.9923 8.63037Z" fill="white"/>
<path fill-rule="evenodd" clip-rule="evenodd" d="M23.5339 36.1006C26.6106 33.1213 28.2992 31.6033 32.7884 32.7317V30.9782C27.8689 30.2151 25.7988 32.3501 23.5339 36.1006Z" fill="white"/>
<path fill-rule="evenodd" clip-rule="evenodd" d="M24.0208 34.372C27.5115 29.6392 29.8089 28.381 35.3534 28.5433V20.3929C31.9926 20.0926 28.5263 20.9612 26.2776 23.429C28.3395 22.1789 31.4081 21.3103 34.1033 21.6431V27.1389C28.5912 27.4474 26.3994 29.2415 24.0208 34.372Z" fill="white"/>
<path fill-rule="evenodd" clip-rule="evenodd" d="M17.0007 16.5766C21.1652 14.6527 26.1334 15.0505 31.0772 18.4762L31.2477 18.3464C27.2293 14.0357 21.7172 12.8505 15.6856 15.3184L17.0007 16.5766Z" fill="white"/>
<path d="M67.3308 9.08719H70.5948C70.6108 9.69519 70.6268 9.93519 70.6268 10.0952C70.6268 11.8232 70.1788 12.6072 68.9948 12.9912C68.1308 13.2632 66.9628 13.3592 64.5948 13.3592C60.4188 13.3592 59.0748 13.2312 58.2108 12.7352C57.5068 12.3352 57.1868 11.7432 57.0588 10.6552C57.0108 10.1752 56.9788 9.29519 56.9788 7.93519C56.9788 5.55119 57.0428 4.67119 57.2828 4.07919C57.8588 2.63919 59.0268 2.36719 64.6108 2.36719C67.4588 2.36719 68.4508 2.47919 69.1868 2.86319C70.0988 3.32719 70.4188 4.11119 70.4188 5.82319V6.35119H67.1708C67.1388 5.64719 67.1068 5.50319 66.9148 5.34319C66.6748 5.13519 65.7308 5.03919 63.6828 5.03919C61.6508 5.03919 61.0588 5.10319 60.7388 5.35919C60.3548 5.67919 60.2268 6.30319 60.2268 7.91919C60.2268 10.6552 60.2748 10.6872 63.6988 10.6872C67.2668 10.6872 67.3148 10.6712 67.3308 9.08719Z" fill="black"/>
<path d="M71.7497 2.52719H83.0297V5.03919H74.9977V7.05519H82.6297V9.50319H74.9977V13.1992H71.7497V2.52719Z" fill="black"/>
<path d="M93.8933 9.08719H97.1573C97.1733 9.69519 97.1893 9.93519 97.1893 10.0952C97.1893 11.8232 96.7413 12.6072 95.5573 12.9912C94.6933 13.2632 93.5253 13.3592 91.1573 13.3592C86.9813 13.3592 85.6373 13.2312 84.7733 12.7352C84.0693 12.3352 83.7493 11.7432 83.6213 10.6552C83.5733 10.1752 83.5413 9.29519 83.5413 7.93519C83.5413 5.55119 83.6053 4.67119 83.8453 4.07919C84.4213 2.63919 85.5893 2.36719 91.1733 2.36719C94.0213 2.36719 95.0133 2.47919 95.7493 2.86319C96.6613 3.32719 96.9813 4.11119 96.9813 5.82319V6.35119H93.7333C93.7013 5.64719 93.6693 5.50319 93.4773 5.34319C93.2373 5.13519 92.2933 5.03919 90.2453 5.03919C88.2133 5.03919 87.6213 5.10319 87.3013 5.35919C86.9173 5.67919 86.7893 6.30319 86.7893 7.91919C86.7893 10.6552 86.8373 10.6872 90.2613 10.6872C93.8293 10.6872 93.8773 10.6712 93.8933 9.08719Z" fill="black"/>
<path d="M62.2215 22.1431H69.6615V22.4311C69.6615 23.4871 69.5975 25.3111 69.5495 25.8231C69.4215 27.0711 68.7335 27.8071 67.4535 28.0631C66.3655 28.2871 65.2455 28.3511 62.3495 28.3511C58.6855 28.3511 57.5495 28.2071 56.6535 27.5991C55.7095 26.9751 55.5335 26.1911 55.5335 22.6871C55.5335 17.6951 55.9975 17.3591 62.9095 17.3591C66.8775 17.3591 68.3495 17.6151 69.0535 18.4631C69.5015 18.9911 69.6295 19.6471 69.6455 21.2151H66.3975C66.3815 20.5911 66.3495 20.4631 66.1415 20.3191C65.8215 20.0951 65.0695 20.0311 62.6375 20.0311C58.7975 20.0311 58.7815 20.0471 58.7815 22.8151C58.7815 24.6231 58.8775 25.1671 59.2295 25.4551C59.5015 25.6791 59.7895 25.7271 60.7015 25.7591L62.6055 25.7911C66.3975 25.7911 66.4935 25.7591 66.4935 24.5751V24.2711H62.2215V22.1431Z" fill="black"/>
<path d="M70.9606 28.1911V17.5191H78.8166C82.4966 17.5191 82.4966 17.5191 83.1846 17.9351C84.0006 18.4311 84.2406 19.1351 84.2406 20.9911C84.2406 22.5751 84.0806 23.1831 83.5046 23.6151C83.2006 23.8551 82.8966 23.9671 82.2566 24.0631C83.9046 24.2551 84.1926 24.7351 84.1286 27.1991V28.1911H80.9286V27.6311C80.9286 26.4311 80.8646 26.0471 80.6086 25.7751C80.3846 25.5191 80.1446 25.4871 78.8006 25.4871H74.2086V28.1911H70.9606ZM74.2086 22.8151H78.7846C80.4166 22.7831 80.4166 22.7831 80.6406 22.6231C80.8966 22.4631 80.9926 22.1431 80.9926 21.4711C80.9926 20.7511 80.8646 20.4471 80.5286 20.3031C80.3046 20.2071 80.2566 20.2071 78.7846 20.1911H74.2086V22.8151Z" fill="black"/>
<path d="M92.5334 17.3591C96.9974 17.3591 97.9894 17.4711 98.8054 18.0951C99.6214 18.7191 99.8614 19.7911 99.8614 22.8471C99.8614 25.9191 99.6214 26.9911 98.8054 27.6151C97.9894 28.2391 96.9814 28.3511 92.5654 28.3511C88.0694 28.3511 87.0774 28.2391 86.2614 27.6151C85.4294 26.9751 85.2054 25.9191 85.2054 22.7831C85.2054 19.8071 85.4454 18.7191 86.2614 18.0951C87.0774 17.4711 88.0694 17.3591 92.5334 17.3591ZM92.5334 20.1271C89.3334 20.1271 89.0294 20.1751 88.7094 20.7991C88.5174 21.1671 88.4534 21.7751 88.4534 23.1351C88.4534 24.4631 88.5494 24.8951 88.9334 25.1991C89.3654 25.5351 89.8774 25.5831 92.5654 25.5831C95.1734 25.5831 95.7014 25.5191 96.1334 25.1991C96.5014 24.9111 96.6134 24.4471 96.6134 23.1511C96.6134 21.5671 96.5174 20.9591 96.2294 20.6071C95.8614 20.1751 95.5094 20.1271 92.5334 20.1271Z" fill="black"/>
<path d="M100.126 17.5191H103.438L106.302 25.5031H106.894L109.31 17.5191H113.23L115.662 25.5031H116.27L119.15 17.5191H122.59L118.446 28.1911H113.438L111.294 20.3671L109.182 28.1911H104.142L100.126 17.5191Z" fill="black"/>
<path d="M123.006 17.5191H135.918V20.2391H131.166V28.1911H127.758V20.2391H123.006V17.5191Z" fill="black"/>
<path d="M136.664 17.5191H140.072V21.3431H147.416V17.5191H150.824V28.1911H147.416V24.3351H140.072V28.1911H136.664V17.5191Z" fill="black"/>
<path d="M55.0055 32.5111H67.9175V35.2311H63.1655V43.1831H59.7575V35.2311H55.0055V32.5111Z" fill="black"/>
<path d="M68.6637 43.1831V32.5111H76.5197C80.1997 32.5111 80.1997 32.5111 80.8877 32.9271C81.7037 33.4231 81.9437 34.1271 81.9437 35.9831C81.9437 37.5671 81.7837 38.1751 81.2077 38.6071C80.9037 38.8471 80.5997 38.9591 79.9597 39.0551C81.6077 39.2471 81.8957 39.7271 81.8317 42.1911V43.1831H78.6317V42.6231C78.6317 41.4231 78.5677 41.0391 78.3117 40.7671C78.0877 40.5111 77.8477 40.4791 76.5037 40.4791H71.9117V43.1831H68.6637ZM71.9117 37.8071H76.4877C78.1197 37.7751 78.1197 37.7751 78.3437 37.6151C78.5997 37.4551 78.6957 37.1351 78.6957 36.4631C78.6957 35.7431 78.5677 35.4391 78.2317 35.2951C78.0077 35.1991 77.9597 35.1991 76.4877 35.1831H71.9117V37.8071Z" fill="black"/>
<path d="M94.638 43.1831L93.726 41.3751H86.67L85.758 43.1831H82.046L87.694 32.5111H92.75L98.334 43.1831H94.638ZM92.59 39.0391L90.526 34.9911H89.886L87.822 39.0391H92.59Z" fill="black"/>
<path d="M108.854 39.0711H112.118C112.134 39.6791 112.15 39.9191 112.15 40.0791C112.15 41.8071 111.702 42.5911 110.518 42.9751C109.654 43.2471 108.486 43.3431 106.118 43.3431C101.942 43.3431 100.598 43.2151 99.7342 42.7191C99.0302 42.3191 98.7102 41.7271 98.5822 40.6391C98.5342 40.1591 98.5022 39.2791 98.5022 37.9191C98.5022 35.5351 98.5662 34.6551 98.8062 34.0631C99.3822 32.6231 100.55 32.3511 106.134 32.3511C108.982 32.3511 109.974 32.4631 110.71 32.8471C111.622 33.3111 111.942 34.0951 111.942 35.8071V36.3351H108.694C108.662 35.6311 108.63 35.4871 108.438 35.3271C108.198 35.1191 107.254 35.0231 105.206 35.0231C103.174 35.0231 102.582 35.0871 102.262 35.3431C101.878 35.6631 101.75 36.2871 101.75 37.9031C101.75 40.6391 101.798 40.6711 105.222 40.6711C108.79 40.6711 108.838 40.6551 108.854 39.0711Z" fill="black"/>
<path d="M113.257 32.5111H116.505V36.3831H118.281L122.505 32.4471H127.481L121.305 37.7431L127.993 43.1831H123.065L118.281 39.1031H116.505V43.1831H113.257V32.5111Z" fill="black"/>
</svg>
